<?xml version="1.0" standalone="no"?>
<!DOCTYPE svg PUBLIC "-//W3C//DTD SVG 20010904//EN"
 "http://www.w3.org/TR/2001/REC-SVG-20010904/DTD/svg10.dtd">
<svg version="1.0" xmlns="http://www.w3.org/2000/svg"
 width="1024.000000pt" height="1024.000000pt" viewBox="0 0 1024.000000 1024.000000"
 preserveAspectRatio="xMidYMid meet">
<metadata>
Created by potrace 1.11, written by Peter Selinger 2001-2013
</metadata>
<g transform="translate(0.000000,1024.000000) scale(0.100000,-0.100000)"
fill="#000000" stroke="none">
<path d="M5035 9526 c-38 -24 -243 -144 -455 -266 -212 -123 -491 -285 -621
-361 -130 -76 -254 -148 -275 -160 -22 -12 -302 -175 -624 -362 -749 -435
-1343 -780 -1587 -921 l-193 -111 0 -2227 c0 -1483 3 -2228 10 -2228 6 0 189
-104 408 -231 930 -541 1261 -734 1847 -1074 400 -232 774 -450 1230 -715 182
-105 334 -196 339 -201 6 -5 16 -3 25 4 9 8 75 47 146 89 257 149 518 301
1025 595 283 164 995 578 1582 918 l1068 620 -3 2230 -2 2229 -115 66 c-135
78 -606 351 -905 525 -115 67 -464 270 -775 450 -311 180 -675 391 -810 470
-135 78 -306 177 -380 220 -74 43 -214 124 -310 180 -352 206 -529 305 -542
304 -7 0 -44 -20 -83 -43z m1650 -1717 l1538 -894 -6 -1795 -6 -1794 -278
-161 c-153 -89 -838 -487 -1523 -885 -685 -398 -1256 -728 -1270 -733 -22 -8
-193 89 -1565 885 l-1540 895 0 1798 0 1797 305 178 c1182 686 2097 1218 2405
1398 215 126 368 210 381 208 11 -1 712 -405 1559 -897z"/>
<path d="M4680 8207 c-694 -403 -1180 -686 -1535 -892 -181 -105 -457 -265
-613 -355 l-282 -165 2 -1674 3 -1673 150 -87 c2112 -1228 2683 -1560 2700
-1569 18 -9 219 105 1455 823 l1435 833 3 1674 2 1674 -157 91 c-87 50 -504
292 -928 538 -1569 911 -1784 1035 -1792 1035 -4 0 -204 -114 -443 -253z
m2048 -781 l93 -53 -1352 -783 c-744 -431 -1358 -783 -1364 -783 -17 0 -187
104 -181 111 9 8 2700 1562 2706 1562 3 -1 47 -25 98 -54z m-3369 -259 l90
-53 -402 -235 -402 -235 -92 55 c-51 31 -92 58 -92 61 0 7 782 459 795 459 7
1 53 -23 103 -52z m972 2 c49 -28 89 -53 89 -54 0 -2 -290 -171 -645 -375
l-646 -372 -96 57 c-93 56 -95 58 -72 71 13 7 303 173 644 368 341 196 624
356 629 356 5 0 48 -23 97 -51z m2879 -21 c49 -29 88 -53 86 -55 -1 -1 -612
-355 -1356 -786 l-1354 -784 -93 56 c-51 30 -89 59 -85 62 4 4 428 250 942
547 514 297 1117 645 1340 775 223 129 411 235 418 236 7 1 53 -22 102 -51z
m-822 -1002 l93 -54 -33 -20 c-18 -11 -321 -187 -673 -392 -352 -205 -661
-385 -686 -400 l-47 -28 -91 55 c-54 33 -88 60 -83 65 9 9 1413 826 1422 827
3 1 47 -23 98 -53z"/>
</g>
</svg>
